<?xml version="1.0" standalone="no"?>
<!DOCTYPE svg PUBLIC "-//W3C//DTD SVG 20010904//EN"
 "http://www.w3.org/TR/2001/REC-SVG-20010904/DTD/svg10.dtd">
<svg version="1.0" xmlns="http://www.w3.org/2000/svg"
 width="43.61" height="43.61" viewBox="0 0 838.000000 938.000000"
 preserveAspectRatio="xMidYMid meet">

<g transform="translate(0.000000,938.000000) scale(0.100000,-0.100000)"
fill="#C00000" stroke="none">
<path d="M5521 9373 l-64 -4 79 -48 c250 -150 474 -321 644 -491 370 -370 483
-737 341 -1107 -216 -558 -1049 -1095 -2246 -1448 -670 -197 -1435 -307 -1926
-275 -90 5 -191 14 -224 20 -85 14 -86 13 -30 -22 156 -98 399 -174 685 -213
161 -22 529 -30 734 -16 1210 83 2529 583 3222 1223 332 307 502 594 566 958
20 118 17 417 -5 514 -25 104 -93 266 -152 363 -58 93 -203 242 -295 302 -176
114 -398 189 -670 226 -114 16 -529 27 -659 18z"/>
<path d="M2366 8819 c-753 -51 -1146 -322 -1112 -765 40 -528 687 -1234 1499
-1639 144 -72 355 -160 363 -152 2 2 -47 48 -108 103 -150 133 -432 415 -540
539 -259 301 -417 565 -486 815 -23 82 -26 114 -26 230 1 118 4 145 27 215 41
125 107 227 216 335 107 106 216 183 384 271 l112 59 -105 -2 c-58 0 -158 -5
-224 -9z"/>
<path d="M4429 8691 c-60 -23 -126 -70 -171 -119 -91 -100 -185 -277 -252
-469 l-35 -102 78 78 c220 218 497 310 749 250 26 -6 79 -26 117 -45 208 -99
291 -285 206 -459 -107 -217 -406 -348 -756 -331 -194 9 -385 49 -580 121
l-90 34 65 -61 c36 -33 101 -84 145 -113 351 -233 751 -302 1120 -194 236 70
498 255 571 405 25 50 29 71 29 139 0 69 -4 89 -32 148 -78 164 -242 319 -564
532 -156 103 -273 167 -348 189 -73 21 -193 20 -252 -3z"/>
<path d="M3315 8505 c-230 -77 -364 -178 -441 -332 -37 -74 -39 -83 -38 -168
0 -69 5 -102 22 -143 67 -162 236 -329 542 -536 171 -115 250 -166 250 -161 0
3 -34 42 -77 87 -105 115 -217 266 -264 360 -60 119 -70 172 -72 376 -2 170 0
180 26 255 32 93 62 153 111 226 20 29 36 55 36 57 0 8 -26 2 -95 -21z"/>
<path d="M5885 7464 c-71 -64 -185 -135 -319 -200 -230 -111 -456 -175 -1016
-289 -179 -36 -333 -69 -344 -73 -17 -7 376 -44 614 -57 120 -7 324 7 437 31
270 55 478 217 607 471 25 51 68 153 63 153 -1 -1 -20 -17 -42 -36z"/>
<path d="M7414 7347 c-3 -575 -309 -965 -1014 -1293 -194 -90 -343 -149 -785
-309 -693 -252 -990 -389 -1218 -562 -69 -53 -224 -199 -238 -225 -9 -16 -6
-16 23 2 62 36 234 108 383 159 216 75 515 158 955 267 212 52 558 137 770
189 1314 323 1875 561 2041 867 32 59 34 69 34 159 0 90 -2 99 -37 170 -101
204 -383 435 -808 662 l-106 56 0 -142z"/>
<path d="M575 7379 c-157 -20 -361 -98 -496 -190 l-64 -43 132 -12 c358 -33
591 -126 842 -338 113 -95 221 -217 499 -565 180 -225 237 -290 243 -278 5 8
24 62 43 119 69 205 70 397 5 594 -157 473 -674 779 -1204 713z"/>
<path d="M2690 7196 c0 -2 102 -94 228 -204 l227 -199 101 5 c233 11 458 -31
819 -152 162 -55 242 -78 226 -65 -12 10 -75 52 -140 93 -513 325 -893 466
-1403 521 -32 4 -58 4 -58 1z"/>
<path d="M491 6004 c-140 -38 -252 -132 -325 -274 -43 -83 -86 -210 -101 -297
l-7 -43 69 29 c707 291 1757 84 3058 -602 551 -290 1415 -824 1687 -1041 358
-285 510 -519 495 -761 -8 -144 -73 -269 -212 -411 -131 -133 -297 -250 -539
-381 -56 -29 -90 -51 -76 -49 14 3 66 13 115 21 143 25 361 80 501 126 541
176 771 428 689 754 -113 446 -841 1045 -2070 1704 -367 197 -1070 538 -1435
696 -432 187 -1107 435 -1360 500 -179 46 -381 58 -489 29z"/>
<path d="M7481 5542 c-62 -180 -281 -755 -369 -968 -147 -356 -251 -588 -403
-894 -363 -733 -681 -1217 -1098 -1670 -95 -103 -93 -105 57 -42 598 249 1078
1041 1522 2511 77 256 322 1123 318 1127 -2 1 -14 -27 -27 -64z"/>
<path d="M1564 5025 c3 -16 30 -176 61 -355 171 -1004 314 -1523 541 -1970
321 -634 785 -979 1459 -1085 145 -23 549 -32 728 -15 141 12 351 41 482 65
113 21 406 88 402 91 -2 2 -59 -4 -128 -13 -96 -13 -200 -17 -454 -17 -371 0
-472 11 -735 80 -579 152 -1049 508 -1426 1080 -283 428 -511 942 -824 1859
-57 165 -105 302 -108 305 -2 3 -2 -8 2 -25z"/>
</g>
<g transform="translate(0.000000,938.000000) scale(0.100000,-0.100000)"
fill="#006000" stroke="none">
<path d="M720 3035 c130 -110 214 -221 348 -452 97 -168 181 -273 361 -453
370 -368 702 -575 1041 -647 114 -24 359 -24 485 1 135 26 405 98 405 107 0 5
-3 9 -6 9 -26 0 -833 170 -959 202 -599 152 -891 357 -1274 893 -117 163 -209
245 -396 350 l-50 28 45 -38z"/>
<path d="M7995 2283 c-99 -75 -392 -266 -515 -336 -763 -431 -1562 -597 -2320
-482 -52 8 -113 17 -135 20 l-40 6 40 -22 c132 -73 399 -166 588 -204 613
-124 1157 40 1841 554 199 149 628 511 606 510 -3 0 -32 -21 -65 -46z"/>
<path d="M2655 1339 c-362 -74 -492 -76 -748 -9 -62 16 -123 32 -137 35 -45
11 62 -35 197 -86 199 -75 324 -102 463 -103 131 0 194 14 302 71 61 32 197
143 173 141 -5 0 -118 -22 -250 -49z"/>
<path d="M3760 1388 c0 -3 14 -44 30 -94 17 -49 43 -145 57 -214 25 -115 27
-144 27 -355 0 -258 -20 -454 -55 -536 -27 -62 -83 -113 -173 -156 l-71 -34
65 6 c171 16 267 54 357 143 114 112 375 463 500 672 77 129 202 377 247 489
l26 64 -58 -6 c-234 -26 -306 -29 -512 -24 -199 4 -342 19 -422 43 -10 3 -18
4 -18 2z"/>
<path d="M5032 1269 c129 -230 385 -368 718 -387 138 -8 348 1 480 21 l85 13
-145 6 c-275 12 -489 80 -679 217 -68 48 -88 56 -206 86 -71 19 -160 45 -198
59 -37 14 -70 26 -73 26 -3 0 5 -18 18 -41z"/>
</g>
</svg>
