<svg xmlns="http://www.w3.org/2000/svg" width="100" height="100" viewBox="0 0 100 100">
  <!-- 花の中心部分 -->
  <circle cx="50" cy="50" r="10" fill="#FF3366" />
  
  <!-- バラの花弁 -->
  <path d="M50,20 C70,20 80,35 75,45 C70,55 50,60 50,60 C50,60 30,55 25,45 C20,35 30,20 50,20" fill="#FF3366" />
  <path d="M50,20 C70,20 80,35 75,45 C70,55 50,60 50,60" fill="#FF4477" />
  <path d="M50,20 C30,20 20,35 25,45 C30,55 50,60 50,60" fill="#FF4477" />

  <!-- 茎 -->
  <rect x="47" y="60" width="6" height="30" fill="#228B22" />
</svg>